<?xml version="1.0" encoding="UTF-8"?>
<svg width="800" height="600" viewBox="0 0 800 600" xmlns="http://www.w3.org/2000/svg">
  <!-- Background -->
  <rect width="800" height="600" fill="#f8f9fa" rx="20"/>
  
  <!-- Grid Lines -->
  <g stroke="#e9ecef" stroke-width="1">
    <line x1="100" y1="50" x2="100" y2="550"/>
    <line x1="250" y1="50" x2="250" y2="550"/>
    <line x1="400" y1="50" x2="400" y2="550"/>
    <line x1="550" y1="50" x2="550" y2="550"/>
    <line x1="700" y1="50" x2="700" y2="550"/>
    
    <line x1="50" y1="100" x2="750" y2="100"/>
    <line x1="50" y1="200" x2="750" y2="200"/>
    <line x1="50" y1="300" x2="750" y2="300"/>
    <line x1="50" y1="400" x2="750" y2="400"/>
    <line x1="50" y1="500" x2="750" y2="500"/>
  </g>
  
  <!-- Main Chart Line -->
  <path d="M100,400 C150,380 200,420 250,300 S350,250 400,200 S500,180 550,150 S650,180 700,100"
        fill="none"
        stroke="#1a237e"
        stroke-width="3"/>
  
  <!-- Data Points -->
  <g fill="#1a237e">
    <circle cx="100" cy="400" r="6"/>
    <circle cx="250" cy="300" r="6"/>
    <circle cx="400" cy="200" r="6"/>
    <circle cx="550" cy="150" r="6"/>
    <circle cx="700" cy="100" r="6"/>
  </g>
  
  <!-- Gradient Area Under Line -->
  <path d="M100,400 C150,380 200,420 250,300 S350,250 400,200 S500,180 550,150 S650,180 700,100 L700,550 L100,550 Z"
        fill="url(#gradient)"
        opacity="0.2"/>
  
  <defs>
    <linearGradient id="gradient" x1="0%" y1="0%" x2="0%" y2="100%">
      <stop offset="0%" style="stop-color:#1a237e;stop-opacity:0.5"/>
      <stop offset="100%" style="stop-color:#1a237e;stop-opacity:0"/>
    </linearGradient>
  </defs>
</svg> 